<svg xmlns="http://www.w3.org/2000/svg" viewBox="0 0 513.14 164.19"><defs><style>.cls-1{isolation:isolate;}.cls-2{opacity:0.3;mix-blend-mode:multiply;}.cls-3,.cls-4{fill:none;stroke-miterlimit:10;stroke-width:5px;}.cls-3{stroke:#000;}.cls-4{stroke:#fff;}.cls-5{fill:#dc3333;}</style></defs><g class="cls-1"><g id="Ebene_1" data-name="Ebene 1"><g class="cls-2"><polygon class="cls-3" points="471.95 148.77 402.46 150.53 448.79 19.85 509.81 21.42 471.95 148.77"/></g><polygon class="cls-4" points="468.95 144.77 399.46 146.53 445.79 15.85 506.81 17.42 468.95 144.77"/><g class="cls-2"><polygon points="452.89 164.19 3 152.77 47.17 25.42 490.75 4 452.89 164.19"/></g><polygon class="cls-5" points="449.89 160.19 0 148.77 44.17 21.42 487.75 0 449.89 160.19"/><g class="cls-2"><polygon class="cls-3" points="382.48 151.04 22.06 160.19 66.23 10 417.77 19.05 382.48 151.04"/></g><polygon class="cls-4" points="379.48 147.04 19.06 156.19 63.23 6 414.77 15.05 379.48 147.04"/><polygon class="cls-5" points="449.89 160.19 93.81 151.21 169.81 15.21 487.75 0 449.89 160.19"/></g></g></svg>