<svg xmlns="http://www.w3.org/2000/svg" viewBox="0 0 39.99 40"><defs><style>.cls-1{fill:#dc3333;}.cls-2{fill:#fefefe;}</style></defs><title>3</title><g id="Ebene_2" data-name="Ebene 2"><g id="Design"><path class="cls-1" d="M40,20A20,20,0,1,1,20,0,20,20,0,0,1,40,20Z"/><path class="cls-2" d="M9.07,31.94A1.34,1.34,0,0,1,8,30.49V9.57A1.31,1.31,0,0,1,9.44,8.11h21a1.29,1.29,0,0,1,1.42,1.42v21a1.29,1.29,0,0,1-1.1,1.39,2.83,2.83,0,0,1-.65,0H24.48c-.15-.1-.13-.26-.13-.41V23.11c0-.44.08-.51.53-.51.73,0,1.46,0,2.19,0,.29,0,.43-.1.46-.4.1-.88.23-1.76.34-2.64,0-.33,0-.38-.35-.38H25c-.59,0-.64-.05-.64-.65V16.89a4.07,4.07,0,0,1,0-.61A1.38,1.38,0,0,1,25.85,15c.6,0,1.21,0,1.81,0,.28,0,.39-.12.38-.39V12.3c0-.25-.09-.4-.34-.41a14.63,14.63,0,0,0-3.24,0,4.09,4.09,0,0,0-3.6,3.88c-.09.93,0,1.86-.06,2.8,0,.57-.06.63-.62.63H18.13c-.36,0-.4.05-.41.39v2.64c0,.34,0,.38.41.38h2.12a.6.6,0,0,1,.48.11.81.81,0,0,1,.06.43v8.33c0,.49,0,.49-.49.49H9.44A1.15,1.15,0,0,1,9.07,31.94Z"/><path class="cls-1" d="M24.45,31.93c-1.11,0-2.23,0-3.35,0-.27,0-.34-.09-.34-.35q0-4.26,0-8.51c0-.13.08-.28-.09-.37H17.91c-.21,0-.3,0-.3-.28,0-1,0-2.05,0-3.08,0-.2.06-.27.27-.27.82,0,1.64,0,2.46,0,.29,0,.39-.07.39-.38,0-1,0-1.93,0-2.9A4.23,4.23,0,0,1,25,11.7a23,23,0,0,1,2.87.11c.19,0,.24.07.24.26,0,.93,0,1.85,0,2.77,0,.21-.07.25-.26.25-.66,0-1.32,0-2,0-.92.05-1.35.43-1.42,1.33s0,1.66,0,2.49c0,.24.17.18.29.18,1,0,1.94,0,2.9,0,.35,0,.39.11.35.41-.14,1-.28,1.94-.38,2.91,0,.26-.13.31-.36.31-.82,0-1.64,0-2.46,0-.27,0-.34.08-.34.34C24.46,26,24.45,29,24.45,31.93Z"/></g></g></svg>