<svg xmlns="http://www.w3.org/2000/svg" viewBox="0 0 40.01 40"><defs><style>.cls-1{fill:#dc3333;}.cls-2{fill:#fefefe;}</style></defs><title>1</title><g id="Ebene_2" data-name="Ebene 2"><g id="Design"><path class="cls-1" d="M20,0A20,20,0,1,1,0,19.79,20,20,0,0,1,20,0Z"/><path class="cls-2" d="M7,20.29c0-1.95,0-3.9.1-5.84A8.14,8.14,0,0,1,8.4,10.17a7,7,0,0,1,5-2.91,24.72,24.72,0,0,1,3.44-.2c2.49,0,5,0,7.48,0A14.2,14.2,0,0,1,28,7.46,6.8,6.8,0,0,1,33.17,13a20,20,0,0,1,.28,4c0,2.61,0,5.22,0,7.83a11.67,11.67,0,0,1-.51,3.8,6.83,6.83,0,0,1-5.59,4.69,19.6,19.6,0,0,1-3.34.23c-2.08,0-4.17.05-6.25,0a31.1,31.1,0,0,1-4.63-.25,7,7,0,0,1-5.92-6A33.22,33.22,0,0,1,7,23.09C6.94,22.16,7,21.22,7,20.29Z"/><path class="cls-1" d="M31.2,20.61c0,1.56,0,3.41-.08,5.26a6.28,6.28,0,0,1-.91,3.21,4.78,4.78,0,0,1-3.48,2.05,24.91,24.91,0,0,1-3.34.17c-2.12,0-4.24,0-6.36,0a21.07,21.07,0,0,1-3.64-.23,4.71,4.71,0,0,1-4-4.34,26.83,26.83,0,0,1-.15-2.83c0-1.67-.05-3.33,0-5,0-1.47,0-2.94.11-4.41a5.7,5.7,0,0,1,1.1-3.25,4.73,4.73,0,0,1,3.12-1.73,23.39,23.39,0,0,1,3.74-.2c2.42,0,4.84,0,7.25,0a11.39,11.39,0,0,1,3.18.37A4.57,4.57,0,0,1,31,13.54a27.2,27.2,0,0,1,.22,4.33C31.21,18.69,31.2,19.51,31.2,20.61Z"/><path class="cls-2" d="M27,20.3a6.78,6.78,0,1,1-6.75-6.76A6.79,6.79,0,0,1,27,20.3Z"/><path class="cls-2" d="M27.32,14.72a1.54,1.54,0,0,1-1.53-1.52,1.53,1.53,0,1,1,3.06,0A1.53,1.53,0,0,1,27.32,14.72Z"/><path class="cls-1" d="M24.73,20.31A4.52,4.52,0,1,1,20.2,15.8,4.54,4.54,0,0,1,24.73,20.31Z"/></g></g></svg>