<svg xmlns="http://www.w3.org/2000/svg" viewBox="0 0 40.01 40"><defs><style>.cls-1{fill:#dc3333;}.cls-2{fill:#fefefe;}</style></defs><title>2</title><g id="Ebene_2" data-name="Ebene 2"><g id="Design"><path class="cls-1" d="M20,0A20,20,0,1,1,0,19.89,20,20,0,0,1,20,0Z"/><path class="cls-2" d="M31.69,12.83a11,11,0,0,0,2.47-.72,9.8,9.8,0,0,1-2.26,2.44.84.84,0,0,0-.36.75,15,15,0,0,1-4,10.41,14,14,0,0,1-9.28,4.64A14.83,14.83,0,0,1,8.94,28.3c-.09-.05-.21-.08-.27-.23a10.53,10.53,0,0,0,6.5-1.4,4.4,4.4,0,0,0,1.11-.76,5.36,5.36,0,0,1-3.4-1.38,5.11,5.11,0,0,1-1.43-2.27,6.71,6.71,0,0,0,1.08.08,3.38,3.38,0,0,0,1.14-.18,5.33,5.33,0,0,1-2.95-1.89A5.24,5.24,0,0,1,9.6,17a5.75,5.75,0,0,0,2.28.63,7.14,7.14,0,0,1-1.11-1.08,5.24,5.24,0,0,1-.58-5.64c.12-.26.2-.25.39,0a14.75,14.75,0,0,0,9.16,5.11c.38.06.77.08,1.15.13.2,0,.26,0,.22-.23a5.07,5.07,0,0,1,.4-3.16,5.27,5.27,0,0,1,8.37-1.62.55.55,0,0,0,.6.16,11,11,0,0,0,2.61-1c.1-.05.18-.14.34-.12a5.4,5.4,0,0,1-1.95,2.65C31.46,12.86,31.5,12.87,31.69,12.83Z"/></g></g></svg>